# xmcd CD database file
#
# Track frame offsets:
#	150
#	20990
#	51795
#	78927
#	97097
#	121362
#	142082
#	158127
#	182967
#	205505
#	237085
#	249180
#	279902
#
# Disc length: 4157 seconds
#
# Revision: 4
# Processed by: cddbd v1.5.2PL0 Copyright (c) Steve Scherf et al.
# Submitted via: CDex 1.70beta3
#
DISCID=af103b0d
DTITLE=ENDLICHERI☆ENDLICHERI - Coward
DYEAR=2006
DGENRE=JPop
TTITLE0=ENDLICHERI☆ENDLICHERI
TTITLE1=故意
TTITLE2=雄
TTITLE3=闇食いWind
TTITLE4=a happy love word
TTITLE5=16
TTITLE6=Chance Comes Knocking.
TTITLE7=御伽噺
TTITLE8=Six Pack
TTITLE9=ソメイヨシノ(album version)
TTITLE10=Coward
TTITLE11=美しく在る為に
TTITLE12=これだけの日を跨いで来たのだから
EXTD=YEAR: 2006
EXTT0=
EXTT1=
EXTT2=
EXTT3=
EXTT4=
EXTT5=
EXTT6=
EXTT7=
EXTT8=
EXTT9=
EXTT10=
EXTT11=
EXTT12=
PLAYORDER=
